#!OML:ASF H:\Swim 2\Project 1\Capture day 1\Session 1\male.ASF
:FULLY-SPECIFIED
:DEGREES
940
root 2.88686 14.9613 9.99526 107.566 28.7658 5.59179
lowerback -14.4745 4.79663 12.0351
upperback -11.123 5.48352 -11.8034
thorax -1.32186 2.16756 -19.1055
lowerneck -14.5383 -2.13993 6.74912
upperneck 33.9312 -2.62017 -5.24958
head 13.729 -0.777241 -3.65316
rclavicle -1.27222e-014 -1.0138e-013
rhumerus -16.9813 22.5994 -70.5787
rradius 74.3675
rwrist -4.04024
rhand -30.5853 -1.90385
rfingers 7.12502
rthumb -3.88272 -31.8482
lclavicle -1.27222e-014 -1.0138e-013
lhumerus -652.765 22.4245 690.196
lradius 36.5643
lwrist 82.745
lhand -36.1416 -7.51492
lfingers 7.12502
lthumb -9.24642 22.2623
rfemur -53.5557 8.87162 13.3795
rtibia 36.9011
rfoot 35.0737 2.29378
rtoes 23.7091
lfemur -45.1775 -4.42723 -17.4139
ltibia 46.0304
lfoot -17.5237 6.17523
ltoes -22.2016
941
root 2.87288 14.9635 10.0093 107.946 28.7712 6.62849
lowerback -14.2681 4.36732 12.1764
upperback -11.0858 4.89104 -11.8949
thorax -1.61191 1.81225 -19.4749
lowerneck -14.5617 -1.92261 6.21998
upperneck 33.8833 -2.21259 -5.07815
head 13.7591 -0.64984 -3.43101
rclavicle -6.36111e-015 -7.11649e-014
rhumerus -19.4153 24.008 -72.5477
rradius 74.3216
rwrist -4.23029
rhand -30.7711 -1.79492
rfingers 7.12502
rthumb -4.06211 -31.7359
lclavicle -6.36111e-015 -7.11649e-014
lhumerus -652.53 21.8305 690.149
lradius 36.2845
lwrist 83.6004
lhand -36.0678 -7.06988
lfingers 7.12502
lthumb -9.17521 22.7105
rfemur -53.5885 8.93813 13.2463
rtibia 34.4572
rfoot 33.9479 0.869743
rtoes 23.5723
lfemur -44.0315 -4.67473 -17.0609
ltibia 46.7884
lfoot -17.1787 6.09753
ltoes -22.2565
942
root 2.85769 14.9639 10.0226 108.326 28.8042 7.84884
lowerback -14.0202 3.92504 12.3549
upperback -11.0043 4.27977 -11.9658
thorax -1.89252 1.44668 -19.842
lowerneck -14.5651 -1.72722 5.67378
upperneck 33.8405 -1.82224 -4.92201
head 13.7819 -0.53284 -3.21307
rclavicle -7.95139e-015 1.73738e-013
rhumerus -21.9104 25.4158 -74.4751
rradius 74.1657
rwrist -4.4457
rhand -31.0293 -1.64152
rfingers 7.12502
rthumb -4.31148 -31.5776
lclavicle -7.95139e-015 1.73738e-013
lhumerus -652.241 21.2734 690.183
lradius 36.042
lwrist 84.4348
lhand -35.9547 -6.80133
lfingers 7.12502
lthumb -9.06612 22.9838
rfemur -53.3975 8.86528 13.2329
rtibia 32.0813
rfoot 32.7588 -0.460226
rtoes 23.3528
lfemur -42.9388 -4.98907 -16.6558
ltibia 47.6503
lfoot -16.7717 5.79024
ltoes -22.2791
943
root 2.84027 14.9621 10.0338 108.688 28.8563 9.20952
lowerback -13.7272 3.47615 12.5554
upperback -10.8836 3.66071 -12.0182
thorax -2.16806 1.07712 -20.1965
lowerneck -14.5515 -1.55616 5.10528
upperneck 33.8158 -1.45153 -4.77919
head 13.804 -0.427274 -2.99879
rclavicle -4.13472e-014 2.3059e-014
rhumerus -24.4439 26.8412 -76.3799
rradius 73.8803
rwrist -4.65635
rhand -31.3332 -1.43054
rfingers 7.12502
rthumb -4.60487 -31.3605
lclavicle -4.13472e-014 2.3059e-014
lhumerus -651.912 20.7501 690.294
lradius 35.854
lwrist 85.1758
lhand -35.8364 -6.69874
lfingers 7.12502
lthumb -8.95193 23.0913
rfemur -53.0096 8.67633 13.3401
rtibia 29.8582
rfoot 31.541 -1.59034
rtoes 23.088
lfemur -41.9251 -5.33076 -16.2168
ltibia 48.6214
lfoot -16.34 5.17382
ltoes -22.0874
944
root 2.81985 14.9584 10.0415 109.048 28.9389 10.6728
lowerback -13.4085 3.03261 12.7856
upperback -10.7393 3.04832 -12.0502
thorax -2.43884 0.710412 -20.5352
lowerneck -14.5267 -1.41116 4.51361
upperneck 33.8206 -1.10148 -4.65295
head 13.8321 -0.333927 -2.79013
rclavicle -3.02153e-014 -3.81667e-014
rhumerus -26.9994 28.3004 -78.2829
rradius 73.4599
rwrist -4.83988
rhand -31.6585 -1.19984
rfingers 7.12502
rthumb -4.91895 -31.1227
lclavicle -3.02153e-014 -3.81667e-014
lhumerus -651.555 20.2466 690.481
lradius 35.735
lwrist 85.7214
lhand -35.7515 -6.73601
lfingers 7.12502
lthumb -8.87002 23.0576
rfemur -52.4937 8.39434 13.5826
rtibia 27.8785
rfoot 30.3259 -2.47284
rtoes 22.8263
lfemur -41.0539 -5.64625 -15.7435
ltibia 49.6858
lfoot -15.9468 4.181
ltoes -21.9339
945
root 2.79692 14.9525 10.0454 109.399 29.0476 12.1966
lowerback -13.0722 2.60307 13.0531
upperback -10.581 2.45345 -12.0662
thorax -2.70555 0.351408 -20.8665
lowerneck -14.4984 -1.28758 3.9016
upperneck 33.8653 -0.769206 -4.53478
head 13.8732 -0.250307 -2.58424
rclavicle -4.77083e-015 -4.96962e-014
rhumerus -29.5611 29.7984 -80.2155
rradius 72.8941
rwrist -5.00028
rhand -31.9946 -0.921389
rfingers 7.12502
rthumb -5.24349 -30.8365
lclavicle -4.77083e-015 -4.96962e-014
lhumerus -651.19 19.742 690.738
lradius 35.6983
lwrist 85.9596
lhand -35.738 -6.85903
lfingers 7.12502
lthumb -8.85696 22.9351
rfemur -51.9008 8.06076 13.9393
rtibia 26.2345
rfoot 29.1183 -3.12304
rtoes 22.563
lfemur -40.3539 -5.89421 -15.26
ltibia 50.8041
lfoot -15.6906 2.73954
ltoes -21.8939
946
root 2.77157 14.9451 10.0445 109.76 29.1616 13.7422
lowerback -12.7385 2.19143 13.3459
upperback -10.4231 1.88114 -12.0723
thorax -2.97061 0.00235811 -21.189
lowerneck -14.4958 -1.18007 3.28026
upperneck 33.9676 -0.436392 -4.46426
head 13.9428 -0.172639 -2.39708
rclavicle 1.59028e-015 -5.56597e-014
rhumerus -32.1161 31.3366 -82.1991
rradius 72.1883
rwrist -5.16374
rhand -32.3135 -0.593314
rfingers 7.12502
rthumb -5.55147 -30.5006
lclavicle 1.59028e-015 -5.56597e-014
lhumerus -650.848 19.222 691.065
lradius 35.7649
lwrist 85.7828
lhand -35.829 -7.00729
lfingers 7.12502
lthumb -8.94481 22.7831
rfemur -51.3089 7.69253 14.3767
rtibia 25.0074
rfoot 27.9431 -3.58305
rtoes 22.2976
lfemur -39.8737 -6.04802 -14.8054
ltibia 51.9297
lfoot -15.6241 0.876249
ltoes -21.9857
947
root 2.74388 14.9373 10.0384 110.149 29.2658 15.2733
lowerback -12.4271 1.7993 13.6618
upperback -10.281 1.332 -12.0747
thorax -3.23893 -0.338041 -21.5095
lowerneck -14.5237 -1.07983 2.66173
upperneck 34.121 -0.0976834 -4.43015
head 14.0404 -0.0967081 -2.22512
rclavicle 6.52014e-014 -4.65156e-014
rhumerus -34.6605 32.9161 -84.2639
rradius 71.3503
rwrist -5.36406
rhand -32.6213 -0.198122
rfingers 7.12502
rthumb -5.84864 -30.0974
lclavicle 6.52014e-014 -4.65156e-014
lhumerus -650.572 18.6706 691.429
lradius 35.9485
lwrist 85.1193
lhand -36.0398 -7.15811
lfingers 7.12502
lthumb -9.14821 22.6235
rfemur -50.7911 7.31946 14.8567
rtibia 24.258
rfoot 26.8052 -3.93302
rtoes 22.0616
lfemur -39.6523 -6.09098 -14.4142
ltibia 53.0133
lfoot -15.716 -1.27287
ltoes -22.254
948
root 2.71414 14.9295 10.0274 110.561 29.3487 16.7427
lowerback -12.1542 1.43126 13.9918
upperback -10.1617 0.811539 -12.0788
thorax -3.50618 -0.666559 -21.8291
lowerneck -14.5763 -0.979578 2.05567
upperneck 34.3031 0.250557 -4.42286
head 14.1552 -0.0195834 -2.06481
rclavicle -1.11319e-014 -5.96354e-014
rhumerus -37.1896 34.5123 -86.4362
rradius 70.3815
rwrist -5.60877
rhand -32.9141 0.285643
rfingers 7.12502
rthumb -6.13131 -29.6056
lclavicle -1.11319e-014 -5.96354e-014
lhumerus -650.393 18.0859 691.833
lradius 36.2563
lwrist 83.9252
lhand -36.3491 -7.24962
lfingers 7.12502
lthumb -9.44661 22.5187
rfemur -50.3901 6.94811 15.3711
rtibia 24.015
rfoot 25.7458 -4.17941
rtoes 21.916
lfemur -39.6938 -6.00937 -14.1224
ltibia 54.0138
lfoot -15.8648 -3.42559
ltoes -22.5769
949
root 2.6826 14.9221 10.0121 110.976 29.391 18.0991
lowerback -11.925 1.08978 14.3067
upperback -10.0677 0.325075 -12.0919
thorax -3.76817 -0.978408 -22.1389
lowerneck -14.6497 -0.868887 1.50198
upperneck 34.4993 0.612874 -4.44906
head 14.2807 0.0641336 -1.92485
rclavicle 6.52014e-014 4.25399e-014
rhumerus -39.7056 36.1072 -88.7203
rradius 69.3013
rwrist -5.92435
rhand -33.175 0.847119
rfingers 7.12502
rthumb -6.38313 -29.0367
lclavicle 6.52014e-014 4.25399e-014
lhumerus -650.334 17.4845 692.243
lradius 36.676
lwrist 82.2574
lhand -36.7359 -7.22801
lfingers 7.12502
lthumb -9.81983 22.523
rfemur -50.1159 6.56325 15.9157
rtibia 24.2604
rfoot 24.8263 -4.25917
rtoes 21.9109
lfemur -39.9726 -5.80214 -13.9727
ltibia 54.8947
lfoot -15.9747 -5.23947
ltoes -22.9355
950
root 2.64919 14.9152 9.9929 111.38 29.4025 19.2957
lowerback -11.7486 0.7821 14.594
upperback -10.0019 -0.117268 -12.1123
thorax -4.01677 -1.26638 -22.428
lowerneck -14.7256 -0.739005 1.01439
upperneck 34.6797 0.980233 -4.46803
head 14.3988 0.157131 -1.79171
rclavicle 4.13472e-014 -5.84427e-014
rhumerus -42.1977 37.6621 -91.1059
rradius 68.1229
rwrist -6.31794
rhand -33.3535 1.47395
rfingers 7.12502
rthumb -6.55545 -28.4046
lclavicle 4.13472e-014 -5.84427e-014
lhumerus -650.402 16.8865 692.644
lradius 37.1794
lwrist 80.2255
lhand -37.1491 -7.10281
lfingers 7.12502
lthumb -10.2184 22.629
rfemur -49.9716 6.17259 16.5
rtibia 24.9373
rfoot 24.1203 -4.10126
rtoes 22.1359
lfemur -40.4711 -5.45139 -13.9717
ltibia 55.6329
lfoot -16.0061 -6.40023
ltoes -23.3019
951
root 2.61434 14.9089 9.97097 111.744 29.392 20.29
lowerback -11.6193 0.512583 14.8368
upperback -9.96303 -0.507493 -12.1374
thorax -4.24727 -1.52398 -22.6823
lowerneck -14.8034 -0.583995 0.602478
upperneck 34.838 1.35578 -4.47762
head 14.5062 0.262257 -1.66568
rclavicle -5.08889e-014 1.10127e-013
rhumerus -44.6528 39.1498 -93.5661
rradius 66.8511
rwrist -6.75374
rhand -33.4649 2.19105
rfingers 7.12502
rthumb -6.66302 -27.6841
lclavicle -5.08889e-014 1.10127e-013
lhumerus -649.453 16.3355 695.421
lradius 36.8989
lwrist 75.6485
lhand -36.9921 -6.52937
lfingers 7.12502
lthumb -10.0671 23.2098
rfemur -49.929 5.80298 17.1132
rtibia 25.9662
rfoot 23.7106 -3.65044
rtoes 22.3098
lfemur -41.1504 -4.94341 -14.1221
ltibia 56.2041
lfoot -15.9895 -6.74925
ltoes -23.6013
952
root 2.57805 14.9031 9.94673 112.059 29.3831 21.0586
lowerback -11.5376 0.289903 15.0279
upperback -9.95056 -0.832604 -12.1606
thorax -4.44983 -1.74166 -22.8876
lowerneck -14.8808 -0.410867 0.266292
upperneck 34.9649 1.73014 -4.4843
head 14.5981 0.375108 -1.55081
rclavicle -6.20208e-014 -5.96354e-014
rhumerus -47.0477 40.5355 -96.0455
rradius 65.5105
rwrist -7.22587
rhand -33.467 2.9794
rfingers 7.12502
rthumb -6.66504 -26.8957
lclavicle -6.20208e-014 -5.96354e-014
lhumerus -648.671 15.8167 697.98
lradius 36.5983
lwrist 71.2694
lhand -36.7736 -6.11277
lfingers 7.12502
lthumb -9.85618 23.6365
rfemur -49.9678 5.50853 17.7343
rtibia 27.2605
rfoot 23.6563 -2.92046
rtoes 22.4228
lfemur -41.9969 -4.27697 -14.3956
ltibia 56.5913
lfoot -15.981 -6.30111
ltoes -23.9876
953
root 2.54215 14.8978 9.92114 112.288 29.3626 21.5843
lowerback -11.4869 0.108501 15.1538
upperback -9.95478 -1.09755 -12.1864
thorax -4.62303 -1.92004 -23.0431
lowerneck -14.9448 -0.226328 -0.0151372
upperneck 35.0438 2.0858 -4.45681
head 14.6622 0.490057 -1.43315
rclavicle 9.70069e-014 9.58142e-014
rhumerus -49.3489 41.8041 -98.5055
rradius 64.1142
rwrist -7.72256
rhand -33.3386 3.82201
rfingers 7.12502
rthumb -6.54111 -26.057
lclavicle 9.70069e-014 9.58142e-014
lhumerus -648.124 15.3572 700.133
lradius 36.3268
lwrist 67.4577
lhand -36.5355 -5.9713
lfingers 7.12502
lthumb -9.62652 23.7887
rfemur -50.0255 5.31741 18.3101
rtibia 28.7418
rfoot 23.9935 -1.97063
rtoes 22.4244
lfemur -42.9569 -3.48772 -14.8025
ltibia 56.777
lfoot -16.0208 -5.24107
ltoes -24.3344
